<?xml version="1.0" encoding="UTF-8" standalone="no"?>
<svg
   xmlns:dc="http://purl.org/dc/elements/1.1/"
   xmlns:cc="http://creativecommons.org/ns#"
   xmlns:rdf="http://www.w3.org/1999/02/22-rdf-syntax-ns#"
   xmlns:svg="http://www.w3.org/2000/svg"
   xmlns="http://www.w3.org/2000/svg"
   xmlns:sodipodi="http://sodipodi.sourceforge.net/DTD/sodipodi-0.dtd"
   xmlns:inkscape="http://www.inkscape.org/namespaces/inkscape"
   id="Layer_1"
   data-name="Layer 1"
   viewBox="0 0 570.34 201.83"
   version="1.1"
   inkscape:version="0.91 r13725"
   sodipodi:docname="logo.svg"
   width="570.34003"
   height="201.83">
  <metadata
     id="metadata4161">
    <rdf:RDF>
      <cc:Work
         rdf:about="">
        <dc:format>image/svg+xml</dc:format>
        <dc:type
           rdf:resource="http://purl.org/dc/dcmitype/StillImage" />
        <dc:title>logo</dc:title>
      </cc:Work>
    </rdf:RDF>
  </metadata>
  <sodipodi:namedview
     pagecolor="#ffffff"
     bordercolor="#666666"
     borderopacity="1"
     objecttolerance="10"
     gridtolerance="10"
     guidetolerance="10"
     inkscape:pageopacity="0"
     inkscape:pageshadow="2"
     inkscape:window-width="1920"
     inkscape:window-height="1025"
     id="namedview4159"
     showgrid="false"
     inkscape:zoom="0.80215306"
     inkscape:cx="30.00922"
     inkscape:cy="151.98025"
     inkscape:window-x="0"
     inkscape:window-y="27"
     inkscape:window-maximized="1"
     inkscape:current-layer="Layer_1"
     fit-margin-top="0"
     fit-margin-left="0"
     fit-margin-right="0"
     fit-margin-bottom="0" />
  <defs
     id="defs4137">
    <style
       id="style4139">.cls-1{fill:#ffcb05;}.cls-2{fill:#4d4d4d;}</style>
  </defs>
  <title
     id="title4141">logo</title>
  <g
     id="g4163"
     transform="translate(0,-368.54003)">
    <path
       inkscape:connector-curvature="0"
       id="path4143"
       d="m 407,374.54003 43,0 0,195.8 -43,0 0,-87.38 -79,11.58 0,75.83 -43,0 0,-195.83 43,0 0,86.09 79,-12.09 z" />
    <path
       style="fill:#ffcb05"
       inkscape:connector-curvature="0"
       id="path4145"
       d="m 415,368.54003 43,0 0,195.8 -43,0 0,-87.38 -79,11.58 0,75.83 -43,0 0,-195.83 43,0 0,86.09 79,-12.09 z"
       class="cls-1" />
    <path
       inkscape:connector-curvature="0"
       id="path4147"
       d="m 214.31,374.54003 76.13,195.8 -46.3,0 -0.2,-0.2 -25.33,-59.6 -63.61,9.28 -18.38,50.52 -44.93,0 76.91,-195.8 45.71,0 z m -42.37,97 -5.69,13.86 46,-7 -4,-10.19 -16.89,-45.41 -0.59,0 z" />
    <path
       style="fill:#ffcb05"
       inkscape:connector-curvature="0"
       id="path4149"
       d="m 222.31,368.54003 76.13,195.8 -46.3,0 -0.2,-0.2 -25.33,-59.6 -63.61,9.28 -18.38,50.52 -44.93,0 76.91,-195.8 45.71,0 z m -42.38,97 -5.69,13.86 46,-7 -4,-10.19 -16.88,-45.41 -0.59,0 z"
       class="cls-1" />
    <polygon
       transform="translate(0,368.54003)"
       style="fill:#ffcb05"
       id="polygon4151"
       points="0,110.84 81,176.67 81,148.28 16.96,97.67 0,84.19 0,110.84 "
       class="cls-1" />
    <polygon
       transform="translate(0,368.54003)"
       style="fill:#4d4d4d"
       id="polygon4153"
       points="81,19.13 81,19.13 0,84.19 16.96,97.67 81,47.53 "
       class="cls-2" />
    <polygon
       transform="translate(0,368.54003)"
       style="fill:#4d4d4d"
       id="polygon4155"
       points="490,148.28 490,148.28 490,176.67 570.34,110.84 553.63,97.67 "
       class="cls-2" />
    <polygon
       transform="translate(0,368.54003)"
       style="fill:#ffcb05"
       id="polygon4157"
       points="490,19.13 490,47.53 553.63,97.67 570.34,110.84 570,84.19 490,19.13 "
       class="cls-1" />
  </g>
</svg>
